<svg width="78" height="50" viewBox="0 0 78 50" fill="none" xmlns="http://www.w3.org/2000/svg">
<g filter="url(#filter0_d_4_14)">
<path d="M44.6461 16.7727H42.0396L37.3521 34.1875H39.9586L44.6461 16.7727Z" fill="white"/>
<path d="M9.48171 32.2131C12.1806 32.2131 13.9988 30.8991 14.4249 28.875L11.6266 28.6903C11.3212 29.5213 10.54 29.9545 9.53143 29.9545C8.01864 29.9545 7.05984 28.9531 7.05984 27.3267V27.3196H14.4888V26.4886C14.4888 22.7812 12.2445 20.9489 9.36097 20.9489C6.15075 20.9489 4.06978 23.2287 4.06978 26.5952C4.06978 30.054 6.12234 32.2131 9.48171 32.2131ZM7.05984 25.4446C7.12376 24.2017 8.06836 23.2074 9.41069 23.2074C10.7246 23.2074 11.6337 24.1449 11.6408 25.4446H7.05984ZM19.4888 25.6932C19.4959 24.2869 20.334 23.4631 21.5556 23.4631C22.7701 23.4631 23.5016 24.2585 23.4945 25.5938V32H26.5201V25.054C26.5201 22.5114 25.0286 20.9489 22.7559 20.9489C21.1365 20.9489 19.9647 21.7443 19.4746 23.0156H19.3468V21.0909H16.4632V32H19.4888V25.6932Z" fill="#BDAE82"/>
<path d="M54.8949 32H57.9205V25.8281C57.9205 24.4858 58.9006 23.5625 60.2358 23.5625C60.6548 23.5625 61.2301 23.6335 61.5142 23.7259V21.0412C61.2443 20.9773 60.8679 20.9347 60.5625 20.9347C59.3409 20.9347 58.3395 21.6449 57.9418 22.9943H57.8281V21.0909H54.8949V32ZM70.0742 27.3551C70.0813 28.8182 69.0799 29.5852 67.9933 29.5852C66.8498 29.5852 66.1112 28.7827 66.104 27.4972V21.0909H63.0785V28.0369C63.0856 30.5866 64.5771 32.142 66.7717 32.142C68.4123 32.142 69.5913 31.2969 70.0813 30.0185H70.195V32H73.0998V21.0909H70.0742V27.3551Z" fill="white"/>
</g>
<defs>
<filter id="filter0_d_4_14" x="-1" y="0" width="78.0997" height="58" filterUnits="userSpaceOnUse" color-interpolation-filters="sRGB">
<feFlood flood-opacity="0" result="BackgroundImageFix"/>
<feColorMatrix in="SourceAlpha" type="matrix" values="0 0 0 0 0 0 0 0 0 0 0 0 0 0 0 0 0 0 127 0" result="hardAlpha"/>
<feOffset dy="4"/>
<feGaussianBlur stdDeviation="2"/>
<feComposite in2="hardAlpha" operator="out"/>
<feColorMatrix type="matrix" values="0 0 0 0 0 0 0 0 0 0 0 0 0 0 0 0 0 0 0.25 0"/>
<feBlend mode="normal" in2="BackgroundImageFix" result="effect1_dropShadow_4_14"/>
<feBlend mode="normal" in="SourceGraphic" in2="effect1_dropShadow_4_14" result="shape"/>
</filter>
</defs>
</svg>
