<svg width="32" height="30" viewBox="0 0 32 30" fill="none" xmlns="http://www.w3.org/2000/svg">
<g filter="url(#filter0_d_10_13)">
<path d="M16 0.666992C8.65699 0.693992 2.71399 6.65299 2.71399 14C2.71399 19.599 6.16599 24.393 11.057 26.368L11.146 26.4C11.013 25.347 10.919 23.733 11.186 22.573L12.746 15.946C12.746 15.946 12.346 15.146 12.346 13.973C12.346 12.12 13.426 10.746 14.773 10.746C15.906 10.746 16.466 11.599 16.466 12.613C16.466 13.76 15.733 15.466 15.346 17.053C15.026 18.386 16.013 19.466 17.333 19.466C19.706 19.466 21.52 16.973 21.52 13.373C21.52 10.173 19.227 7.95999 15.947 7.95999C15.871 7.95599 15.783 7.95399 15.694 7.95399C12.505 7.95399 9.92099 10.539 9.92099 13.727C9.92099 13.729 9.92099 13.731 9.92099 13.733C9.92099 14.88 10.361 16.106 10.908 16.773C11.015 16.906 11.028 17.026 10.988 17.16L10.615 18.667C10.562 18.907 10.415 18.974 10.175 18.854C8.49499 18.067 7.45499 15.654 7.45499 13.681C7.45499 9.48099 10.522 5.62799 16.282 5.62799C20.895 5.62799 24.509 8.90799 24.509 13.321C24.509 17.921 21.602 21.614 17.576 21.614C16.243 21.614 14.963 20.907 14.536 20.081L13.696 23.241C13.265 24.578 12.704 25.739 12.008 26.804L12.042 26.748C13.212 27.12 14.558 27.335 15.953 27.335C23.317 27.335 29.286 21.365 29.286 14.002C29.286 6.65499 23.344 0.695992 16.004 0.668992H16.001L16 0.666992Z" fill="white"/>
</g>
<defs>
<filter id="filter0_d_10_13" x="-1.28601" y="0.666992" width="34.572" height="34.668" filterUnits="userSpaceOnUse" color-interpolation-filters="sRGB">
<feFlood flood-opacity="0" result="BackgroundImageFix"/>
<feColorMatrix in="SourceAlpha" type="matrix" values="0 0 0 0 0 0 0 0 0 0 0 0 0 0 0 0 0 0 127 0" result="hardAlpha"/>
<feOffset dy="4"/>
<feGaussianBlur stdDeviation="2"/>
<feComposite in2="hardAlpha" operator="out"/>
<feColorMatrix type="matrix" values="0 0 0 0 0 0 0 0 0 0 0 0 0 0 0 0 0 0 0.25 0"/>
<feBlend mode="normal" in2="BackgroundImageFix" result="effect1_dropShadow_10_13"/>
<feBlend mode="normal" in="SourceGraphic" in2="effect1_dropShadow_10_13" result="shape"/>
</filter>
</defs>
</svg>
